<svg width="100%" viewBox="0 0 1210 190" role="img" xmlns="http://www.w3.org/2000/svg">
  <defs>
    <pattern id="dots" x="0" y="0" width="30" height="30" patternUnits="userSpaceOnUse">
      <circle cx="15" cy="15" r="1" fill="#ddd"/>
    </pattern>
    <linearGradient id="bg" x1="0" y1="0" x2="1" y2="0">
      <stop offset="0%" stop-color="#fffef0"/>
      <stop offset="40%" stop-color="#fafafa"/>
      <stop offset="100%" stop-color="#fff8f8"/>
    </linearGradient>
  </defs>
  <rect width="1210" height="190" fill="url(#bg)"/>
  <rect width="1210" height="190" fill="url(#dots)"/>
  <rect x="0" y="0" width="1210" height="5" fill="#FFD200"/>
  <rect x="0" y="185" width="1210" height="5" fill="#CC1111"/>
  <!-- CÂMERA BULLET -->
  <g opacity="0.13" fill="#1a1a1a">
    <rect x="55" y="88" width="72" height="22" rx="11"/>
    <circle cx="133" cy="99" r="14" fill="#2a2a2a"/>
    <circle cx="133" cy="99" r="9" fill="#1a1a1a"/>
    <circle cx="133" cy="99" r="4" fill="#333"/>
    <rect x="75" y="72" width="12" height="18" rx="3"/>
    <rect x="62" y="58" width="4" height="18" rx="2"/>
    <rect x="62" y="56" width="28" height="6" rx="3"/>
  </g>
  <!-- CÂMERA DOME -->
  <g opacity="0.12" fill="#1a1a1a">
    <rect x="188" y="58" width="56" height="10" rx="5"/>
    <ellipse cx="216" cy="88" rx="28" ry="28" fill="#2a2a2a"/>
    <ellipse cx="216" cy="88" rx="22" ry="22" fill="#333"/>
    <circle cx="216" cy="88" r="10" fill="#1a1a1a"/>
    <circle cx="216" cy="88" r="5" fill="#444"/>
    <rect x="212" y="66" width="8" height="16" rx="3"/>
  </g>
  <!-- DVR -->
  <g opacity="0.11" fill="#1a1a1a">
    <rect x="290" y="80" width="110" height="48" rx="5"/>
    <rect x="298" y="88" width="44" height="24" rx="3" fill="#333"/>
    <rect x="302" y="93" width="16" height="3" rx="1" fill="#555"/>
    <rect x="302" y="99" width="24" height="3" rx="1" fill="#555"/>
    <rect x="302" y="105" width="12" height="3" rx="1" fill="#555"/>
    <circle cx="356" cy="96" r="5" fill="#333"/>
    <circle cx="370" cy="96" r="4" fill="#2a2a2a"/>
    <circle cx="382" cy="96" r="4" fill="#2a2a2a"/>
    <rect x="349" y="104" width="40" height="8" rx="2" fill="#2a2a2a"/>
    <rect x="352" y="106" width="16" height="4" rx="1" fill="#444"/>
    <circle cx="388" cy="106" r="3" fill="#CC1111" opacity="0.6"/>
  </g>
  <!-- TELEFONE IP -->
  <g opacity="0.12" fill="#1a1a1a">
    <rect x="450" y="90" width="88" height="60" rx="5"/>
    <rect x="458" y="97" width="56" height="22" rx="3" fill="#333"/>
    <rect x="458" y="124" width="12" height="8" rx="2" fill="#333"/>
    <rect x="474" y="124" width="12" height="8" rx="2" fill="#333"/>
    <rect x="490" y="124" width="12" height="8" rx="2" fill="#333"/>
    <rect x="458" y="135" width="12" height="8" rx="2" fill="#333"/>
    <rect x="474" y="135" width="12" height="8" rx="2" fill="#333"/>
    <rect x="490" y="135" width="12" height="8" rx="2" fill="#333"/>
    <path d="M452 68 Q452 55 464 52 Q472 50 480 52 Q492 55 498 68" stroke="#1a1a1a" stroke-width="6" fill="none" stroke-linecap="round"/>
    <rect x="447" y="64" width="10" height="16" rx="5"/>
    <rect x="493" y="64" width="10" height="16" rx="5"/>
    <path d="M452 74 Q440 82 450 92" stroke="#1a1a1a" stroke-width="2.5" fill="none" stroke-linecap="round"/>
  </g>
  <!-- FECHADURA DIGITAL -->
  <g opacity="0.12" fill="#1a1a1a">
    <rect x="593" y="62" width="52" height="100" rx="8"/>
    <rect x="601" y="70" width="36" height="28" rx="4" fill="#2a2a2a"/>
    <circle cx="608" cy="107" r="4" fill="#2a2a2a"/>
    <circle cx="619" cy="107" r="4" fill="#2a2a2a"/>
    <circle cx="630" cy="107" r="4" fill="#2a2a2a"/>
    <circle cx="608" cy="119" r="4" fill="#2a2a2a"/>
    <circle cx="619" cy="119" r="4" fill="#2a2a2a"/>
    <circle cx="630" cy="119" r="4" fill="#2a2a2a"/>
    <circle cx="608" cy="131" r="4" fill="#2a2a2a"/>
    <circle cx="619" cy="131" r="4" fill="#2a2a2a"/>
    <circle cx="630" cy="131" r="4" fill="#2a2a2a"/>
    <rect x="648" y="98" width="14" height="28" rx="7" fill="#2a2a2a"/>
    <circle cx="619" cy="82" r="5" fill="#333"/>
    <circle cx="619" cy="82" r="2.5" fill="#1a1a1a"/>
  </g>
  <!-- VIDEOPORTEIRO -->
  <g opacity="0.12" fill="#1a1a1a">
    <rect x="720" y="65" width="45" height="80" rx="6"/>
    <circle cx="742" cy="83" r="10" fill="#2a2a2a"/>
    <circle cx="742" cy="83" r="6" fill="#333"/>
    <circle cx="742" cy="83" r="3" fill="#1a1a1a"/>
    <rect x="730" y="100" width="24" height="12" rx="6" fill="#2a2a2a"/>
    <circle cx="730" cy="120" r="3" fill="#333"/>
    <circle cx="742" cy="120" r="3" fill="#333"/>
    <circle cx="754" cy="120" r="3" fill="#333"/>
  </g>
  <g opacity="0.11" fill="#1a1a1a">
    <rect x="785" y="70" width="68" height="52" rx="5"/>
    <rect x="792" y="77" width="54" height="38" rx="3" fill="#2a2a2a"/>
    <rect x="808" y="122" width="24" height="6" rx="2" fill="#2a2a2a"/>
    <rect x="800" y="128" width="40" height="5" rx="2.5" fill="#2a2a2a"/>
  </g>
  <!-- ROTEADOR -->
  <g opacity="0.11" fill="#1a1a1a">
    <rect x="905" y="108" width="80" height="28" rx="5"/>
    <rect x="912" y="76" width="4" height="36" rx="2"/>
    <rect x="924" y="70" width="4" height="42" rx="2"/>
    <rect x="936" y="68" width="4" height="44" rx="2"/>
    <rect x="948" y="70" width="4" height="42" rx="2"/>
    <rect x="960" y="76" width="4" height="36" rx="2"/>
    <rect x="913" y="116" width="10" height="7" rx="1" fill="#2a2a2a"/>
    <rect x="927" y="116" width="10" height="7" rx="1" fill="#2a2a2a"/>
    <rect x="941" y="116" width="10" height="7" rx="1" fill="#2a2a2a"/>
    <rect x="955" y="116" width="10" height="7" rx="1" fill="#2a2a2a"/>
    <circle cx="916" cy="112" r="2" fill="#FFD200" opacity="0.7"/>
    <circle cx="930" cy="112" r="2" fill="#FFD200" opacity="0.7"/>
    <circle cx="944" cy="112" r="2" fill="#CC1111" opacity="0.7"/>
    <circle cx="958" cy="112" r="2" fill="#FFD200" opacity="0.7"/>
    <circle cx="972" cy="112" r="2" fill="#FFD200" opacity="0.7"/>
  </g>
  <!-- CENTRAL DE ALARME -->
  <g opacity="0.11" fill="#1a1a1a">
    <rect x="1040" y="72" width="80" height="70" rx="5"/>
    <rect x="1048" y="80" width="64" height="30" rx="3" fill="#2a2a2a"/>
    <rect x="1052" y="84" width="40" height="12" rx="2" fill="#333"/>
    <rect x="1052" y="101" width="8" height="6" rx="1" fill="#333"/>
    <rect x="1064" y="101" width="8" height="6" rx="1" fill="#333"/>
    <rect x="1076" y="101" width="8" height="6" rx="1" fill="#333"/>
    <rect x="1052" y="110" width="8" height="6" rx="1" fill="#333"/>
    <rect x="1064" y="110" width="8" height="6" rx="1" fill="#333"/>
    <rect x="1076" y="110" width="8" height="6" rx="1" fill="#333"/>
    <circle cx="1100" cy="87" r="4" fill="#CC1111" opacity="0.6"/>
    <circle cx="1100" cy="100" r="4" fill="#FFD200" opacity="0.6"/>
    <rect x="1048" y="120" width="28" height="14" rx="3" fill="#2a2a2a"/>
    <rect x="1052" y="123" width="3" height="8" rx="1" fill="#444"/>
    <rect x="1058" y="123" width="3" height="8" rx="1" fill="#444"/>
    <rect x="1064" y="123" width="3" height="8" rx="1" fill="#444"/>
    <rect x="1070" y="123" width="3" height="8" rx="1" fill="#444"/>
  </g>
  <!-- linhas de conexão -->
  <g opacity="0.05" stroke="#888" stroke-width="1" stroke-dasharray="6,5" fill="none">
    <line x1="148" y1="99" x2="188" y2="88"/>
    <line x1="244" y1="88" x2="290" y2="98"/>
    <line x1="400" y1="100" x2="450" y2="110"/>
    <line x1="538" y1="110" x2="593" y2="100"/>
    <line x1="645" y1="100" x2="720" y2="100"/>
    <line x1="853" y1="96" x2="905" y2="118"/>
    <line x1="985" y1="118" x2="1040" y2="105"/>
  </g>
</svg>
